<svg class="logo" role="img" xmlns="http://www.w3.org/2000/svg" width="379" height="32" viewBox="0 0 379 32">
    <title>Sparkassen Innovation HUB</title>
    <path fill="#000" fill-rule="evenodd"
        d="M339.652 0c2.166 0 3.92 1.794 3.92 4.005 0 2.212-1.756 4.005-3.921 4.004-2.166 0-3.921-1.793-3.921-4.004 0-2.212 1.757-4.005 3.922-4.005zm-15.767 0h-15.659c-2.08 0-4.075.843-5.547 2.345a8.097 8.097 0 0 0-2.298 5.664h31.35a8.097 8.097 0 0 0-2.299-5.664A7.762 7.762 0 0 0 323.885 0zm-15.659 32h15.66c2.08 0 4.075-.843 5.546-2.345a8.097 8.097 0 0 0 2.298-5.664h-31.349c0 2.124.827 4.162 2.298 5.664A7.761 7.761 0 0 0 308.226 32zm39.422-23.99v15.98c0 2.126.828 4.164 2.3 5.666A7.762 7.762 0 0 0 355.496 32V0a7.762 7.762 0 0 0-5.549 2.344 8.097 8.097 0 0 0-2.299 5.666zM379 23.99V8.01a8.097 8.097 0 0 0-2.3-5.666A7.762 7.762 0 0 0 371.153 0v32a7.762 7.762 0 0 0 5.549-2.345A8.097 8.097 0 0 0 379 23.99zM2.946 11.452a2.622 2.622 0 0 0-1.828.666 2.117 2.117 0 0 0-.735 1.642c0 .97.583 1.707 1.75 2.21l.824.35c.192.083.377.182.552.296.142.092.27.204.379.333.095.115.168.247.215.39.048.15.07.307.07.465.011.389-.133.766-.4 1.044a1.452 1.452 0 0 1-2.16-.153 2.298 2.298 0 0 1-.31-1.06L0 17.928c.072.717.386 1.386.89 1.891a2.59 2.59 0 0 0 1.834.671c.732.02 1.44-.265 1.961-.79a2.69 2.69 0 0 0 .785-1.985 2.393 2.393 0 0 0-.481-1.515 3.631 3.631 0 0 0-1.52-1.048l-.85-.355c-.619-.26-.928-.602-.928-1.027a.97.97 0 0 1 .353-.766 1.3 1.3 0 0 1 .89-.31c.249-.012.496.051.712.18.237.176.429.408.558.677l1.044-.632c-.552-.978-1.32-1.467-2.304-1.467h.002zm10.487 5.342a3.062 3.062 0 0 0 2.116-.698 2.413 2.413 0 0 0 .784-1.896 2.507 2.507 0 0 0-.734-1.85 2.162 2.162 0 0 0-.973-.575 6.445 6.445 0 0 0-1.618-.153h-1.459v8.711h1.287v-3.539h.597zm-.597-3.96h.426c1.219 0 1.828.45 1.828 1.348 0 .93-.59 1.394-1.773 1.394h-.48v-2.742zm14.63 7.498h1.41l-4.071-9.258-4.222 9.258h1.387l.95-2.116h3.65l.897 2.116zm-4.01-3.351l1.326-2.962 1.265 2.962h-2.592zm15.271-1.213a2.51 2.51 0 0 0 .52-1.591 2.408 2.408 0 0 0-.83-1.907c-.5-.433-1.314-.649-2.441-.649h-1.508v8.712h1.287v-3.567h.232l2.436 3.566h1.575l-2.641-3.712a2.306 2.306 0 0 0 1.37-.853zm-2.972-2.912h.458c1.186 0 1.779.446 1.78 1.339 0 .951-.61 1.427-1.83 1.427h-.408V12.856zm11.337-1.235h-1.287v8.711h1.287v-3.605l.265-.27 3.072 3.876h1.724l-3.878-4.77 3.856-3.943h-1.718l-3.32 3.476v-3.475zm16.642 8.711h1.408l-4.071-9.258-4.22 9.258h1.387l.95-2.116h3.652l.894 2.116zm-4.011-3.351l1.326-2.962 1.265 2.962h-2.592zm13.53-5.53a2.622 2.622 0 0 0-1.828.667 2.118 2.118 0 0 0-.735 1.641c0 .97.584 1.707 1.751 2.211l.824.35c.192.082.377.181.552.296.141.091.269.204.379.333.095.114.168.246.215.389.047.15.07.307.069.465.012.39-.132.766-.399 1.044a1.452 1.452 0 0 1-2.16-.152 2.296 2.296 0 0 1-.31-1.061l-1.303.294c.071.716.386 1.385.89 1.89a2.59 2.59 0 0 0 1.833.672c.732.02 1.44-.265 1.962-.79a2.69 2.69 0 0 0 .784-1.986 2.393 2.393 0 0 0-.48-1.515 3.63 3.63 0 0 0-1.52-1.047l-.85-.356c-.62-.26-.929-.602-.929-1.027a.97.97 0 0 1 .355-.765c.25-.212.566-.323.89-.31.25-.011.496.051.712.18.237.176.428.408.558.677l1.044-.632c-.553-.978-1.32-1.467-2.304-1.467zm11.123 0a2.621 2.621 0 0 0-1.829.667 2.117 2.117 0 0 0-.735 1.641c0 .97.584 1.707 1.752 2.211l.823.35c.192.082.377.181.552.296.141.091.269.204.379.333.095.114.168.246.215.389.048.15.071.307.07.465.011.39-.133.766-.4 1.044a1.452 1.452 0 0 1-2.16-.152 2.3 2.3 0 0 1-.309-1.061l-1.304.294a3.12 3.12 0 0 0 .89 1.89 2.59 2.59 0 0 0 1.834.672c.732.02 1.44-.265 1.961-.79a2.69 2.69 0 0 0 .785-1.986 2.393 2.393 0 0 0-.481-1.515 3.632 3.632 0 0 0-1.52-1.047l-.85-.356c-.619-.26-.928-.602-.928-1.027a.968.968 0 0 1 .353-.767c.25-.212.566-.322.89-.31.25-.011.496.051.712.18.237.176.429.408.558.677l1.044-.632c-.552-.978-1.32-1.467-2.304-1.467l.002.002zm13.31.17h-4.707v8.711h4.707v-1.236h-3.418v-2.91h3.318V14.95h-3.32v-2.095h3.419v-1.234zm7.503 8.711v-6.099l6.221 6.63V11.62h-1.287v6.054l-6.22-6.646v9.303h1.287zm20.808-8.711v8.711h1.287v-8.711h-1.287zm9.15 8.711v-6.099l6.222 6.63V11.62h-1.287v6.054l-6.222-6.646v9.303h1.287zm14.078 0v-6.099l6.22 6.63V11.62h-1.285v6.054l-6.222-6.646v9.303h1.287zm13.89-1.01a4.44 4.44 0 0 0 6.155-.145 4.329 4.329 0 0 0 1.314-3.188c-.013-2.496-1.991-4.517-4.436-4.53a4.3 4.3 0 0 0-3.16 1.32 4.547 4.547 0 0 0-1.32 3.3 4.539 4.539 0 0 0 1.447 3.245v-.002zm.77-5.681a3.135 3.135 0 0 1 4.49 0 3.433 3.433 0 0 1-.01 4.671 3.155 3.155 0 0 1-4.505-.07 3.32 3.32 0 0 1 .023-4.601h.001zm11.492-2.02l3.74 9.365 3.828-9.365h-1.41l-2.393 6.037-2.359-6.037h-1.409.003zm18.348 8.711h1.409l-4.073-9.258-4.22 9.258h1.386l.95-2.116h3.652l.896 2.116zm-4.01-3.351l1.325-2.962 1.265 2.962h-2.592.001zm14.845-4.125v-1.235h-5.205v1.235h1.961v7.477h1.287v-7.477H204.56zm5.675-1.235v8.711h1.287v-8.711h-1.287zm8.885 7.701a4.439 4.439 0 0 0 6.154-.145 4.329 4.329 0 0 0 1.315-3.188c-.014-2.496-1.992-4.517-4.436-4.53a4.3 4.3 0 0 0-3.16 1.32 4.546 4.546 0 0 0-1.32 3.3 4.539 4.539 0 0 0 1.447 3.245v-.002zm.767-5.681a3.135 3.135 0 0 1 4.492 0 3.433 3.433 0 0 1-.01 4.671 3.155 3.155 0 0 1-4.506-.07 3.32 3.32 0 0 1 .024-4.601zm14.134 6.69v-6.098l6.22 6.63V11.62h-1.287v6.054l-6.221-6.646v9.303h1.287zm22.095-8.71h-1.287v8.71h1.288v-4.067h3.677v4.068h1.288v-8.711h-1.288v3.408h-3.679V11.62h.001zm11.537 0v5.608a3.241 3.241 0 0 0 1.557 2.855 3.102 3.102 0 0 0 3.201 0 3.241 3.241 0 0 0 1.557-2.855V11.62h-1.287v5.247c0 .76-.12 1.307-.36 1.642-.363.474-.92.75-1.51.75s-1.147-.276-1.512-.75c-.239-.346-.359-.893-.359-1.642v-5.247h-1.287zm14.835 8.71c.49.012.978-.044 1.453-.163.363-.119.691-.326.957-.604.81-.824.939-2.118.308-3.092a2.067 2.067 0 0 0-1.071-.829c.451-.397.708-.977.7-1.585a2.574 2.574 0 0 0-.213-1.016 2.41 2.41 0 0 0-.57-.83 2.033 2.033 0 0 0-.869-.456 5.49 5.49 0 0 0-1.364-.136h-1.282v8.712h1.951zm-.665-7.502h.453c.359-.025.714.089.994.32.243.245.369.586.344.934.026.353-.096.7-.336.956a1.46 1.46 0 0 1-1.05.324h-.405V12.83zm0 3.634h.652c.692 0 1.173.126 1.441.378.27.237.422.584.416.948.008.37-.15.723-.43.96a1.947 1.947 0 0 1-1.282.349h-.797v-2.635z">
    </path>
</svg>