<svg width="140" height="42" viewBox="0 0 140 42" fill="none" xmlns="http://www.w3.org/2000/svg">
<path d="M3.11485 0H0V41.3342H3.11485V0Z" fill="#C00813"/>
<path d="M18.9881 28.5664C16.5336 28.5664 15.0634 28.0313 14.2473 27.6642L14.7831 26.2268C15.5742 26.5628 16.8451 27.0419 18.7888 27.0419C21.4675 27.0419 22.4269 26.0277 22.4269 24.5593C22.4269 22.8108 20.7885 22.4188 18.8448 21.7717C16.5025 21.0126 14.6149 20.3344 14.6149 17.7708C14.6149 15.3193 16.4215 13.8508 19.5239 13.8508C21.3305 13.8508 22.6013 14.1059 23.4174 14.3299V15.9353C22.4892 15.6242 21.2744 15.3442 19.6671 15.3442C17.6612 15.3442 16.3966 15.9913 16.3966 17.5717C16.3966 19.0091 17.412 19.4322 19.8104 20.1664C22.6325 21.0126 24.327 21.8837 24.327 24.5033C24.3207 27.1291 22.321 28.5664 18.9881 28.5664Z" fill="#616460"/>
<path d="M32.0829 28.5661C29.429 28.5661 28.3015 27.1599 28.3015 24.4781V15.5741H25.9902V14.1368H28.3015V10.8141C28.8372 10.615 29.5162 10.3101 30.133 9.99902V14.143H33.9144V15.5804H30.133V24.2853C30.133 26.1706 30.7248 27.0168 32.5875 27.0168C33.2354 27.0168 33.9954 26.9048 34.2508 26.8177L34.5623 28.255C34.0016 28.423 33.0111 28.5661 32.0829 28.5661Z" fill="#616460"/>
<path d="M45.1466 20.9567H43.7948C40.3249 20.9567 38.3189 21.6038 38.3189 24.3105C38.3189 25.7167 39.0228 27.0421 41.2531 27.0421C42.9476 27.0421 44.2994 26.283 45.1466 25.3496V20.9567ZM45.2027 28.2554L45.1716 26.9612C44.4115 27.6954 42.8292 28.5665 40.8295 28.5665C38.431 28.5665 36.4001 27.4092 36.4001 24.2856C36.4001 22.3692 37.2474 20.9879 38.9979 20.2287C40.1816 19.6936 41.7639 19.4696 43.7948 19.4696H45.1466V18.5425C45.1466 16.371 44.2184 15.3567 41.4213 15.3567C39.7019 15.3567 38.3999 15.8047 37.5589 16.1158V14.4794C38.7425 14.1123 39.9262 13.8572 41.7328 13.8572C45.4021 13.8572 46.9532 15.2634 46.9532 18.4492V28.2554H45.2027Z" fill="#616460"/>
<path d="M56.9643 15.9103C53.9429 15.9103 52.4477 18.2747 52.4477 20.1352V28.28H50.6162V14.1307H52.4477V16.8934C53.1268 15.4 54.6219 14.0747 56.6528 14.0747C57.1636 14.0747 57.3879 14.1058 57.5561 14.1307V15.9352C57.5312 15.9414 57.2197 15.9103 56.9643 15.9103Z" fill="#616460"/>
<path d="M67.829 10.2482C66.502 10.2482 65.823 10.8144 65.823 12.4446V13.913H68.9565V16.9557H65.8541V28.2864H61.9606V16.9557H60.2661V13.913H61.9294V11.9655C61.9294 8.81082 63.8482 7.28638 66.7512 7.28638C68.1591 7.28638 69.4051 7.48548 70.0779 7.62237V10.497C69.5484 10.3913 68.6762 10.2482 67.829 10.2482Z" fill="#616460"/>
<path d="M74.8249 11.5984C73.554 11.5984 72.4825 10.6402 72.4825 9.45793C72.4825 8.2446 73.554 7.28638 74.8249 7.28638C76.1206 7.28638 77.1921 8.2446 77.1921 9.45793C77.1921 10.6402 76.1206 11.5984 74.8249 11.5984ZM73.2176 28.2864V16.5886C72.8812 16.5326 71.9467 16.4206 71.4421 16.3895V13.9068H77.1112V28.2802H73.2176V28.2864Z" fill="#616460"/>
<path d="M89.608 28.2859V19.3508C89.608 17.6023 88.7607 16.8992 87.465 16.8992C86.001 16.8992 84.699 18.3615 84.699 20.029V28.2859H80.8054V13.9126H84.4747L84.5868 15.5739C85.3469 14.4477 86.9292 13.6326 88.7607 13.6326C91.8382 13.6326 93.5015 15.4619 93.5015 18.4237V28.2859H89.608Z" fill="#616460"/>
<path d="M104.615 21.6594H104.024C101.201 21.6594 100.273 22.5056 100.273 23.9429C100.273 24.814 100.728 25.6914 102.049 25.6914C103.095 25.6914 104.136 25.2434 104.615 24.8451V21.6594ZM104.815 28.286L104.703 27.2407C104.167 27.7509 102.753 28.566 100.896 28.566C98.4978 28.566 96.498 27.3527 96.498 24.2229C96.498 21.7714 97.7378 20.3091 99.8808 19.5998C100.784 19.2887 101.856 19.1518 103.07 19.0896C103.463 19.0585 104.198 19.0336 104.622 19.0336V18.4674C104.622 17.03 103.918 16.4078 101.775 16.4078C100.504 16.4078 99.208 16.6629 97.6256 17.2229V14.2611C99.264 13.8131 100.672 13.614 102.622 13.614C106.603 13.614 108.465 15.0202 108.465 18.5171V28.2674H104.815V28.286Z" fill="#616460"/>
<path d="M120.7 28.2859V19.3508C120.7 17.6023 119.853 16.8992 118.557 16.8992C117.093 16.8992 115.791 18.3615 115.791 20.029V28.2859H111.898V13.9126H115.567L115.679 15.5739C116.439 14.4477 118.021 13.6326 119.853 13.6326C122.93 13.6326 124.594 15.4619 124.594 18.4237V28.2859H120.7Z" fill="#616460"/>
<path d="M127.833 28.2865V25.331C128.737 24.0057 130.375 22.1203 131.615 20.627C132.967 19.0217 134.35 17.5283 134.861 16.9621H128.12V13.9194H139.714V16.875C138.866 17.7772 137.172 19.5257 135.963 20.8759C134.555 22.4563 133.253 24.0305 132.269 25.2439H140V28.2865H127.833Z" fill="#616460"/>
</svg>
