<?xml version="1.0" encoding="UTF-8"?>
<!-- Generator: Adobe Illustrator 24.2.3, SVG Export Plug-In . SVG Version: 6.00 Build 0) -->
<svg xmlns="http://www.w3.org/2000/svg" xmlns:xlink="http://www.w3.org/1999/xlink" version="1.1" id="Layer_1" x="0px" y="0px" viewBox="0 0 93.1 40" style="enable-background:new 0 0 93.1 40;" xml:space="preserve"> <style type="text/css"> .st0{fill:#06176D;} .st1{filter:url(#Adobe_OpacityMaskFilter);} .st2{fill-rule:evenodd;clip-rule:evenodd;fill:#FFFFFF;} .st3{mask:url(#mask-2_1_);} </style> <g id="_x33_.-Company-page-TBD"> <g id="Group-4" transform="translate(396.000000, 0.000000)"> <g id="tier-logo" transform="translate(0.000000, 10.000000)"> <g id="tier-logo-a-link"> <path id="tier-logo-a" class="st0" d="M-324.8,9.3h13.5c2.7,0,3.4-1.2,3.1-2.6c-0.2-1-1-1.9-3.1-1.9h-13.5V9.3z M-328,1.4 l16.9,0c4.3,0,6.4,2.1,6.8,4.8c0.6,3.5-1.1,6.5-6.4,6.6l7.5,4.8c0.3,0.2,0.4,0.6,0.2,0.8c-0.1,0.2-0.3,0.3-0.5,0.3h-3.4 c-0.1,0-0.2,0-0.3-0.1l-8.9-5.8h-8.7V18c0,0.3-0.3,0.6-0.6,0.6h-2.6c-0.3,0-0.6-0.3-0.6-0.6V2C-328.6,1.7-328.3,1.4-328,1.4 L-328,1.4z M-356.2,1.4h22.3c0.3,0,0.6,0.3,0.6,0.6v2.3c0,0.3-0.3,0.6-0.6,0.6h0l-19.1,0v3.7h16.7c0.3,0,0.6,0.3,0.6,0.6v1.8 c0,0.3-0.3,0.6-0.6,0.6h-16.7v3.7h19.1c0.3,0,0.6,0.3,0.6,0.6V18c0,0.3-0.3,0.6-0.6,0.6h-22.3c-0.3,0-0.6-0.3-0.6-0.6V2 C-356.8,1.7-356.5,1.4-356.2,1.4L-356.2,1.4z M-364.4,1.4h2.6c0.3,0,0.6,0.3,0.6,0.6v16c0,0.3-0.3,0.6-0.6,0.6h-2.6 c-0.3,0-0.6-0.3-0.6-0.6V2C-365,1.7-364.7,1.4-364.4,1.4L-364.4,1.4z M-395.4,1.4h25.4c0.3,0,0.6,0.3,0.6,0.6v2.2 c0,0.3-0.3,0.6-0.6,0.6h-10.8V18c0,0.3-0.3,0.6-0.6,0.6h-2.6c-0.3,0-0.6-0.3-0.6-0.6V4.8h-10.8c-0.3,0-0.6-0.3-0.6-0.6V2 C-396,1.7-395.7,1.4-395.4,1.4L-395.4,1.4z"/> </g> <g id="Clipped"> <g id="tier-logo-a_1_"> </g> <defs> <filter id="Adobe_OpacityMaskFilter" x="-396" y="1.4" width="93.1" height="17.2"> <feColorMatrix type="matrix" values="1 0 0 0 0 0 1 0 0 0 0 0 1 0 0 0 0 0 1 0"/> </filter> </defs> <mask maskUnits="userSpaceOnUse" x="-396" y="1.4" width="93.1" height="17.2" id="mask-2_1_"> <g class="st1"> <path id="path-1_1_" class="st2" d="M-324.8,9.3h13.5c2.7,0,3.4-1.2,3.1-2.6c-0.2-1-1-1.9-3.1-1.9h-13.5V9.3z M-328,1.4 l16.9,0c4.3,0,6.4,2.1,6.8,4.8c0.6,3.5-1.1,6.5-6.4,6.6l7.5,4.8c0.3,0.2,0.4,0.6,0.2,0.8c-0.1,0.2-0.3,0.3-0.5,0.3h-3.4 c-0.1,0-0.2,0-0.3-0.1l-8.9-5.8h-8.7V18c0,0.3-0.3,0.6-0.6,0.6h-2.6c-0.3,0-0.6-0.3-0.6-0.6V2C-328.6,1.7-328.3,1.4-328,1.4 L-328,1.4z M-356.2,1.4h22.3c0.3,0,0.6,0.3,0.6,0.6v2.3c0,0.3-0.3,0.6-0.6,0.6h0l-19.1,0v3.7h16.7c0.3,0,0.6,0.3,0.6,0.6v1.8 c0,0.3-0.3,0.6-0.6,0.6h-16.7v3.7h19.1c0.3,0,0.6,0.3,0.6,0.6V18c0,0.3-0.3,0.6-0.6,0.6h-22.3c-0.3,0-0.6-0.3-0.6-0.6V2 C-356.8,1.7-356.5,1.4-356.2,1.4L-356.2,1.4z M-364.4,1.4h2.6c0.3,0,0.6,0.3,0.6,0.6v16c0,0.3-0.3,0.6-0.6,0.6h-2.6 c-0.3,0-0.6-0.3-0.6-0.6V2C-365,1.7-364.7,1.4-364.4,1.4L-364.4,1.4z M-395.4,1.4h25.4c0.3,0,0.6,0.3,0.6,0.6v2.2 c0,0.3-0.3,0.6-0.6,0.6h-10.8V18c0,0.3-0.3,0.6-0.6,0.6h-2.6c-0.3,0-0.6-0.3-0.6-0.6V4.8h-10.8c-0.3,0-0.6-0.3-0.6-0.6V2 C-396,1.7-395.7,1.4-395.4,1.4L-395.4,1.4z"/> </g> </mask> <g id="Group" class="st3"> <rect id="Rectangle" x="-396" y="1.4" class="st0" width="93.1" height="17.2"/> </g> </g> </g> </g> </g> </svg>